<svg version="1.2" xmlns="http://www.w3.org/2000/svg" viewBox="0 0 300 300" width="300" height="300">
	<style>
		.s0 { fill: #f69b77 } 
		.s1 { fill: #434b56 } 
		.s2 { fill: #ffffff } 
		/* 新增背景样式，也可以直接在rect标签内写fill="#ffffff" */
		.bg { fill: #ffffff; }
	</style>
	<!-- 新增白色背景矩形：位置(0,0)，宽高300x300（和SVG画布一致） -->
	<rect class="bg" x="0" y="0" width="300" height="300"/>
	<path class="s0" d="m135.88 214.09c0 0-23.25 14.58-12.91 26.35 9.08 10.34 24.29 1.55 26.69-9.99l0.34-0.33 0.35 0.33c2.41 11.54 17.6 20.34 26.69 9.99 10.33-11.77-12.92-26.35-12.92-26.35"/>
	<path class="s1" d="m132.67 250c-5.09 0-9.82-2.17-13.43-6.29-3.08-3.51-4.37-7.67-3.73-12.05 1.67-11.4 16.09-20.75 17.73-21.78 1.12-0.7 2.46-0.92 3.74-0.62 1.28 0.29 2.39 1.09 3.09 2.2 0.7 1.11 0.93 2.46 0.64 3.74-0.29 1.28-1.08 2.4-2.19 3.1-4.7 2.96-12.43 9.6-13.18 14.79-0.22 1.5 0.2 2.75 1.36 4.06 2.26 2.58 5.06 3.46 8.31 2.6 4.61-1.21 8.81-5.64 9.78-10.32q0.08-0.36 0.21-0.72 0.13-0.35 0.31-0.68 0.19-0.33 0.42-0.62 0.23-0.3 0.5-0.56l0.35-0.33q0.69-0.66 1.58-1.01 0.89-0.36 1.85-0.36 0.96 0.01 1.85 0.36 0.89 0.36 1.58 1.03l0.35 0.33q0.27 0.26 0.5 0.55 0.22 0.3 0.4 0.62 0.19 0.33 0.32 0.68 0.13 0.35 0.2 0.72c0.98 4.66 5.18 9.1 9.78 10.31 3.26 0.86 6.06-0.02 8.32-2.59 1.15-1.32 1.58-2.57 1.35-4.06-0.75-5.2-8.49-11.85-13.19-14.81-1.11-0.7-1.9-1.82-2.2-3.1-0.29-1.29-0.06-2.63 0.64-3.75 0.7-1.12 1.82-1.91 3.1-2.2 1.28-0.3 2.63-0.07 3.75 0.63 1.64 1.04 16.07 10.38 17.73 21.78 0.64 4.39-0.65 8.56-3.72 12.06-4.74 5.4-11.41 7.45-18.31 5.64-4.86-1.28-9.28-4.37-12.45-8.4-3.17 4.03-7.6 7.12-12.47 8.4q-0.59 0.16-1.2 0.28-0.6 0.12-1.21 0.2-0.61 0.08-1.23 0.13-0.61 0.04-1.23 0.04z"/>
	<path class="s0" d="m150.01 105.74c-19.24 2.54-34.1 18.94-34.1 38.89 0 19.94 14.86 36.33 34.1 38.87 19.22-2.54 34.08-18.95 34.08-38.87 0-19.92-14.86-36.35-34.08-38.89z"/>
	<path class="s1" d="m150.01 188.47q-0.09 0-0.17-0.01-0.08 0-0.16 0-0.08-0.01-0.16-0.02-0.08 0-0.16-0.01c-21.9-2.89-38.42-21.72-38.42-43.81 0-22.09 16.52-40.92 38.42-43.8q0.16-0.02 0.33-0.03 0.16-0.01 0.32-0.01 0.16 0 0.32 0.01 0.17 0.01 0.33 0.03c21.89 2.88 38.4 21.72 38.4 43.8 0 22.08-16.51 40.91-38.4 43.8q-0.08 0.01-0.16 0.02-0.09 0.01-0.17 0.02-0.08 0-0.16 0-0.08 0.01-0.16 0.01zm0-77.71c-16.66 2.51-29.13 16.96-29.13 33.87 0 16.91 12.47 31.34 29.13 33.87 16.64-2.54 29.12-16.98 29.12-33.87 0-16.9-12.48-31.35-29.12-33.87z"/>
	<path class="s2" d="m150.01 183.5q-3.55-0.47-6.96-1.58-3.41-1.1-6.56-2.81-3.15-1.7-5.94-3.95-2.79-2.24-5.13-4.96-0.18 0.7-0.32 1.41-0.13 0.71-0.23 1.43-0.09 0.72-0.14 1.44-0.04 0.73-0.05 1.45c0 13.12 11.03 23.94 25.33 25.6 14.28-1.66 25.31-12.48 25.31-25.6q0-0.73-0.05-1.45-0.05-0.72-0.14-1.44-0.09-0.72-0.23-1.43-0.14-0.71-0.32-1.41-2.34 2.71-5.13 4.96-2.79 2.24-5.94 3.95-3.15 1.7-6.55 2.81-3.41 1.11-6.95 1.58z"/>
	<path class="s1" d="m150.01 206.5q-0.08 0-0.15 0-0.07 0-0.14-0.01-0.07 0-0.15-0.01-0.07 0-0.14-0.01c-16.94-1.98-29.72-15.1-29.72-30.54q0-0.88 0.06-1.76 0.06-0.88 0.17-1.75 0.11-0.87 0.28-1.73 0.16-0.87 0.38-1.72c0.22-0.88 0.69-1.69 1.33-2.33 0.65-0.63 1.47-1.08 2.35-1.29 0.89-0.21 1.82-0.17 2.68 0.12 0.87 0.28 1.64 0.8 2.23 1.49q1.99 2.31 4.35 4.23 2.36 1.92 5.03 3.39 2.66 1.48 5.54 2.46 2.88 0.99 5.89 1.45 3.01-0.47 5.9-1.45 2.88-0.98 5.54-2.46 2.67-1.48 5.03-3.4 2.36-1.92 4.35-4.22c0.59-0.69 1.36-1.2 2.22-1.48 0.87-0.28 1.79-0.32 2.67-0.11 0.88 0.2 1.69 0.65 2.34 1.28 0.65 0.64 1.11 1.44 1.33 2.31q0.22 0.86 0.39 1.72 0.17 0.86 0.28 1.74 0.12 0.87 0.17 1.75 0.06 0.88 0.06 1.76c0 15.44-12.76 28.56-29.7 30.54q-0.07 0.01-0.14 0.01-0.08 0.01-0.15 0.01-0.07 0.01-0.14 0.01-0.07 0-0.14 0zm-19.55-25.24c2.41 7.81 9.99 13.95 19.55 15.27 9.55-1.32 17.13-7.46 19.55-15.28q-2.12 1.43-4.38 2.6-2.27 1.18-4.66 2.08-2.38 0.91-4.86 1.54-2.47 0.62-5 0.95-0.16 0.03-0.32 0.04-0.17 0.01-0.33 0.01-0.16 0-0.33-0.01-0.16-0.01-0.32-0.04-2.53-0.33-5.01-0.95-2.47-0.62-4.86-1.53-2.38-0.9-4.65-2.08-2.27-1.17-4.38-2.6z"/>
	<path class="s0" d="m150.01 201.53c-11.02-1.28-20.07-8.01-23.65-17.02q-0.41 1.02-0.72 2.07-0.32 1.06-0.53 2.14-0.21 1.07-0.31 2.17-0.11 1.09-0.11 2.19c0 13.13 11.02 23.94 25.32 25.61 14.28-1.67 25.31-12.48 25.31-25.61q0-1.1-0.11-2.19-0.1-1.09-0.31-2.17-0.22-1.08-0.53-2.13-0.31-1.05-0.72-2.07c-3.58 9-12.63 15.73-23.64 17.01z"/>
	<path class="s1" d="m150.01 223.66q-0.08 0-0.15 0-0.07-0.01-0.14-0.01-0.08 0-0.15-0.01-0.07-0.01-0.14-0.01c-16.94-1.99-29.72-15.12-29.72-30.55q0.01-1.34 0.14-2.66 0.13-1.33 0.38-2.65 0.26-1.31 0.64-2.59 0.38-1.28 0.88-2.52 0.27-0.69 0.74-1.27 0.47-0.58 1.08-1 0.62-0.41 1.33-0.63 0.71-0.22 1.45-0.22 0.75 0 1.46 0.22 0.72 0.22 1.33 0.64 0.62 0.42 1.09 1 0.46 0.58 0.74 1.27c2.88 7.26 10.31 12.65 19.02 13.86 8.71-1.21 16.14-6.6 19.03-13.86q0.28-0.69 0.74-1.27 0.47-0.59 1.09-1 0.62-0.42 1.33-0.64 0.71-0.22 1.46-0.22 0.74 0 1.45 0.22 0.72 0.22 1.33 0.64 0.62 0.42 1.08 1 0.47 0.58 0.75 1.27 0.49 1.24 0.87 2.52 0.38 1.28 0.63 2.59 0.26 1.31 0.39 2.64 0.13 1.33 0.13 2.66c0 15.43-12.77 28.57-29.7 30.55q-0.07 0.01-0.14 0.01-0.07 0.01-0.14 0.01-0.07 0-0.14 0.01-0.07 0-0.14 0zm-19.55-25.28c2.4 7.83 9.98 13.99 19.55 15.31 9.56-1.33 17.15-7.48 19.55-15.31-5.12 4.36-11.71 7.24-18.98 8.09q-0.14 0.02-0.28 0.03-0.15 0.01-0.29 0.01-0.15 0-0.29-0.01-0.14-0.01-0.29-0.03c-7.28-0.85-13.86-3.73-18.98-8.09zm18.96-90.47q-0.99 0-1.9-0.37-0.91-0.38-1.61-1.08-0.7-0.7-1.08-1.61-0.37-0.91-0.37-1.9c0-29.98-19.12-40.45-19.32-40.56-1.14-0.63-1.98-1.68-2.35-2.93-0.38-1.25-0.24-2.59 0.37-3.74 0.61-1.15 1.65-2.02 2.89-2.41 1.24-0.4 2.59-0.28 3.75 0.31 1 0.53 24.59 13.44 24.59 49.33q-0.01 0.99-0.38 1.9-0.38 0.91-1.08 1.61-0.7 0.7-1.61 1.08-0.91 0.37-1.9 0.37z"/>
	<path class="s1" d="m150.59 107.91q-0.99 0-1.9-0.37-0.92-0.38-1.62-1.08-0.69-0.7-1.07-1.61-0.38-0.91-0.38-1.9c0-35.89 23.58-48.8 24.59-49.33 1.16-0.61 2.51-0.73 3.76-0.34 1.25 0.38 2.3 1.25 2.92 2.4 0.61 1.16 0.75 2.51 0.37 3.76-0.37 1.26-1.23 2.31-2.38 2.94-0.83 0.45-19.33 10.93-19.33 40.57q0 0.98-0.38 1.9-0.38 0.91-1.07 1.61-0.7 0.7-1.61 1.08-0.92 0.37-1.9 0.37zm-37.04 33.56q-0.19 0-0.38-0.02-0.19-0.01-0.38-0.04-0.19-0.03-0.37-0.07-0.19-0.04-0.37-0.1c-1.71-0.54-16.82-5.62-21.11-17.29-0.45-1.24-0.4-2.61 0.15-3.8 0.56-1.2 1.56-2.12 2.8-2.58 1.23-0.45 2.6-0.4 3.8 0.15 1.19 0.56 2.12 1.56 2.57 2.8 2.23 6.06 11.65 10.26 14.79 11.25 1.12 0.37 2.08 1.12 2.7 2.12 0.62 1.01 0.86 2.2 0.68 3.37-0.18 1.17-0.77 2.23-1.66 3-0.9 0.77-2.04 1.2-3.22 1.21z"/>
	<path class="s0" d="m94.51 91.39c0 0 3.88-26.6-3.87-36.41 0 0-26.09 11.63-26.09 37.71 0 26.09 30.93 29.71 30.93 29.71 0 0 19.96-12.4 19.96-28.15 0-15.76-12.67-20.41-12.67-20.41z"/>
	<path class="s1" d="m95.48 127.35q-0.08 0-0.15 0-0.07 0-0.14-0.01-0.07 0-0.14-0.01-0.08-0.01-0.15-0.02c-12.21-1.42-35.31-10.5-35.31-34.63 0-28.97 27.84-41.72 29.02-42.25q0.76-0.33 1.59-0.41 0.82-0.07 1.63 0.12 0.8 0.2 1.5 0.65 0.69 0.45 1.21 1.1c3.45 4.38 5.02 11.05 5.62 17.72q0.48-0.3 1.02-0.48 0.53-0.18 1.1-0.24 0.56-0.06 1.12 0.01 0.56 0.07 1.09 0.27c0.65 0.24 15.92 6.06 15.92 25.06 0 18.31-21.39 31.8-22.31 32.37q-0.29 0.19-0.61 0.33-0.31 0.14-0.65 0.23-0.33 0.09-0.67 0.14-0.35 0.05-0.69 0.05zm-6.85-65.62c-6.65 4.13-19.11 14.13-19.11 30.95 0 18.35 18.9 23.37 24.83 24.48 5.58-3.91 16.12-13.29 16.12-22.94 0-6.85-2.96-10.97-5.56-13.26l-5.9 12.54c-0.51 1.08-1.39 1.93-2.47 2.42-1.09 0.48-2.31 0.56-3.45 0.21-1.14-0.34-2.12-1.08-2.76-2.08-0.64-1-0.9-2.2-0.73-3.38 1.15-7.94 1.64-21.33-0.97-28.94zm97.82 79.74c-1.19 0-2.34-0.43-3.23-1.2-0.9-0.77-1.5-1.84-1.68-3.01-0.18-1.17 0.06-2.37 0.69-3.37 0.62-1.01 1.58-1.76 2.71-2.12 3.36-1.08 12.57-5.21 14.79-11.26 0.46-1.24 1.38-2.24 2.58-2.79 1.2-0.56 2.56-0.61 3.8-0.16 1.23 0.46 2.24 1.39 2.79 2.58 0.55 1.2 0.61 2.56 0.16 3.8-4.29 11.67-19.4 16.75-21.12 17.29q-0.18 0.06-0.36 0.1-0.19 0.05-0.38 0.08-0.18 0.03-0.37 0.04-0.19 0.02-0.38 0.02z"/>
	<path class="s0" d="m205.48 91.39c0 0-3.87-26.6 3.88-36.41 0 0 26.09 11.63 26.09 37.71 0 26.09-30.93 29.69-30.93 29.69 0 0-19.95-12.4-19.95-28.15 0-15.75 12.66-20.4 12.66-20.4z"/>
	<path class="s1" d="m204.52 127.35q-0.35 0-0.69-0.05-0.34-0.05-0.68-0.14-0.33-0.1-0.64-0.24-0.32-0.14-0.61-0.32c-0.91-0.56-22.3-14.06-22.3-32.37 0-19 15.26-24.82 15.91-25.06q0.53-0.19 1.1-0.26 0.56-0.08 1.12-0.02 0.56 0.06 1.1 0.24 0.53 0.19 1.01 0.48c0.6-6.67 2.16-13.34 5.62-17.71q0.51-0.65 1.21-1.1 0.7-0.45 1.5-0.65 0.81-0.2 1.63-0.12 0.83 0.07 1.58 0.41c1.19 0.52 29.03 13.27 29.03 42.24 0 24.14-23.1 33.21-35.32 34.64q-0.07 0.01-0.14 0.01-0.07 0.01-0.14 0.01-0.08 0.01-0.15 0.01-0.07 0-0.14 0zm-9.42-46.37c-2.6 2.31-5.57 6.43-5.57 13.25 0 9.71 10.53 19.05 16.11 22.94 5.92-1.12 24.84-6.14 24.84-24.48 0-16.68-12.49-26.76-19.11-30.93-2.63 7.62-2.13 21-0.97 28.93 0.17 1.17-0.09 2.37-0.73 3.38-0.64 1-1.62 1.74-2.76 2.08-1.14 0.35-2.36 0.27-3.45-0.21-1.08-0.49-1.96-1.35-2.47-2.42z"/>
</svg>
