<svg version="1.2" xmlns="http://www.w3.org/2000/svg" viewBox="0 0 300 300" width="300" height="300"><style>.a{fill:#f69b77}.b{fill:#434b56}.c{fill:#fff}</style><path class="a" d="m135.9 214.1c0 0-23.3 14.6-12.9 26.3 9 10.4 24.3 1.6 26.7-9.9l0.3-0.4 0.4 0.4c2.4 11.5 17.6 20.3 26.6 9.9 10.4-11.7-12.9-26.3-12.9-26.3"/><path class="b" d="m132.7 250c-5.1 0-9.9-2.2-13.5-6.3-3-3.5-4.3-7.7-3.7-12 1.7-11.4 16.1-20.8 17.7-21.8 1.2-0.7 2.5-0.9 3.8-0.6 1.3 0.3 2.4 1 3.1 2.2 0.7 1.1 0.9 2.4 0.6 3.7-0.3 1.3-1.1 2.4-2.2 3.1-4.7 3-12.4 9.6-13.2 14.8-0.2 1.5 0.2 2.7 1.4 4.1 2.3 2.5 5.1 3.4 8.3 2.5 4.6-1.2 8.8-5.6 9.8-10.3q0.1-0.3 0.2-0.7 0.1-0.3 0.3-0.7 0.2-0.3 0.4-0.6 0.3-0.3 0.5-0.5l0.4-0.4q0.7-0.6 1.6-1 0.9-0.3 1.8-0.3 1 0 1.9 0.3 0.8 0.4 1.5 1l0.4 0.4q0.3 0.2 0.5 0.5 0.2 0.3 0.4 0.6 0.2 0.4 0.3 0.7 0.1 0.4 0.2 0.7c1 4.7 5.2 9.1 9.8 10.3 3.3 0.9 6 0 8.3-2.5 1.2-1.4 1.6-2.6 1.4-4.1-0.8-5.2-8.5-11.8-13.2-14.8-1.1-0.7-1.9-1.8-2.2-3.1-0.3-1.3-0.1-2.6 0.6-3.8 0.7-1.1 1.8-1.9 3.1-2.2 1.3-0.3 2.6 0 3.8 0.7 1.6 1 16 10.3 17.7 21.8 0.6 4.3-0.7 8.5-3.7 12-4.8 5.4-11.4 7.5-18.3 5.7-4.9-1.3-9.3-4.4-12.5-8.4-3.2 4-7.6 7.1-12.5 8.4q-0.6 0.1-1.2 0.2-0.6 0.2-1.2 0.2-0.6 0.1-1.2 0.2-0.6 0-1.2 0z"/><path class="a" d="m150 105.7c-19.2 2.6-34.1 19-34.1 38.9 0 20 14.9 36.4 34.1 38.9 19.2-2.5 34.1-19 34.1-38.9 0-19.9-14.9-36.3-34.1-38.9z"/><path class="b" d="m150 188.5q-0.1 0-0.2 0 0 0-0.1 0-0.1 0-0.2-0.1-0.1 0-0.1 0c-21.9-2.9-38.5-21.7-38.5-43.8 0-22.1 16.6-40.9 38.5-43.8q0.1 0 0.3 0 0.1 0 0.3 0 0.2 0 0.3 0 0.2 0 0.4 0c21.9 2.9 38.4 21.7 38.4 43.8 0 22.1-16.5 40.9-38.4 43.8q-0.1 0-0.2 0-0.1 0.1-0.2 0.1 0 0-0.1 0-0.1 0-0.2 0zm0-77.7c-16.7 2.5-29.1 16.9-29.1 33.8 0 16.9 12.5 31.4 29.1 33.9 16.7-2.5 29.1-17 29.1-33.9 0-16.9-12.4-31.3-29.1-33.8z"/><path class="c" d="m150 183.5q-3.5-0.5-7-1.6-3.4-1.1-6.5-2.8-3.2-1.7-6-3.9-2.7-2.3-5.1-5-0.2 0.7-0.3 1.4-0.1 0.7-0.2 1.4-0.1 0.8-0.2 1.5 0 0.7 0 1.4c0 13.2 11 24 25.3 25.6 14.3-1.6 25.3-12.4 25.3-25.6q0-0.7 0-1.4-0.1-0.7-0.2-1.5-0.1-0.7-0.2-1.4-0.1-0.7-0.3-1.4-2.4 2.7-5.1 5-2.8 2.2-6 3.9-3.1 1.7-6.5 2.8-3.4 1.1-7 1.6z"/><path class="b" d="m150 206.5q-0.1 0-0.1 0-0.1 0-0.2 0-0.1 0-0.1 0-0.1 0-0.2 0c-16.9-2-29.7-15.1-29.7-30.6q0-0.9 0.1-1.7 0-0.9 0.1-1.8 0.2-0.9 0.3-1.7 0.2-0.9 0.4-1.7c0.2-0.9 0.7-1.7 1.3-2.4 0.7-0.6 1.5-1 2.4-1.3 0.9-0.2 1.8-0.1 2.7 0.2 0.8 0.2 1.6 0.8 2.2 1.5q2 2.3 4.3 4.2 2.4 1.9 5.1 3.4 2.6 1.5 5.5 2.4 2.9 1 5.9 1.5 3-0.5 5.9-1.5 2.9-0.9 5.5-2.4 2.7-1.5 5.1-3.4 2.3-1.9 4.3-4.2c0.6-0.7 1.4-1.2 2.2-1.5 0.9-0.3 1.8-0.3 2.7-0.1 0.9 0.2 1.7 0.6 2.3 1.3 0.7 0.6 1.2 1.4 1.4 2.3q0.2 0.8 0.4 1.7 0.1 0.8 0.3 1.7 0.1 0.9 0.1 1.8 0.1 0.8 0.1 1.7c0 15.5-12.8 28.6-29.7 30.6q-0.1 0-0.2 0 0 0-0.1 0-0.1 0-0.2 0 0 0-0.1 0zm-19.5-25.2c2.4 7.8 9.9 13.9 19.5 15.2 9.6-1.3 17.1-7.4 19.6-15.3q-2.2 1.5-4.4 2.7-2.3 1.1-4.7 2-2.4 0.9-4.8 1.6-2.5 0.6-5 0.9-0.2 0-0.4 0.1-0.1 0-0.3 0-0.2 0-0.3 0-0.2-0.1-0.3-0.1-2.6-0.3-5-0.9-2.5-0.7-4.9-1.6-2.4-0.9-4.7-2-2.2-1.2-4.3-2.6z"/><path class="a" d="m150 201.5c-11-1.2-20.1-8-23.6-17q-0.5 1-0.8 2.1-0.3 1-0.5 2.1-0.2 1.1-0.3 2.2-0.1 1.1-0.1 2.2c0 13.1 11 23.9 25.3 25.6 14.3-1.7 25.3-12.5 25.3-25.6q0-1.1-0.1-2.2-0.1-1.1-0.3-2.2-0.2-1.1-0.5-2.1-0.3-1.1-0.7-2.1c-3.6 9-12.7 15.7-23.7 17z"/><path class="b" d="m150 223.7q-0.1 0-0.1 0-0.1 0-0.2 0-0.1-0.1-0.1-0.1-0.1 0-0.2 0c-16.9-2-29.7-15.1-29.7-30.5q0-1.4 0.1-2.7 0.2-1.3 0.4-2.6 0.3-1.3 0.7-2.6 0.3-1.3 0.8-2.5 0.3-0.7 0.8-1.3 0.5-0.6 1.1-1 0.6-0.4 1.3-0.6 0.7-0.3 1.5-0.3 0.7 0 1.4 0.3 0.7 0.2 1.3 0.6 0.7 0.4 1.1 1 0.5 0.6 0.8 1.3c2.8 7.2 10.3 12.6 19 13.8 8.7-1.2 16.1-6.6 19-13.8q0.3-0.7 0.8-1.3 0.4-0.6 1-1 0.7-0.4 1.4-0.6 0.7-0.3 1.4-0.3 0.8 0 1.5 0.3 0.7 0.2 1.3 0.6 0.6 0.4 1.1 1 0.5 0.6 0.7 1.3 0.5 1.2 0.9 2.5 0.4 1.3 0.7 2.6 0.2 1.3 0.3 2.6 0.2 1.3 0.2 2.7c0 15.4-12.8 28.5-29.7 30.5q-0.1 0-0.2 0 0 0-0.1 0-0.1 0.1-0.2 0.1 0 0-0.1 0zm-19.5-25.3c2.4 7.8 9.9 14 19.5 15.3 9.6-1.3 17.2-7.5 19.6-15.3-5.2 4.3-11.7 7.2-19 8.1q-0.2 0-0.3 0-0.1 0-0.3 0-0.1 0-0.3 0-0.1 0-0.3 0c-7.2-0.9-13.8-3.8-18.9-8.1zm18.9-90.5q-1 0-1.9-0.4-0.9-0.3-1.6-1-0.7-0.7-1.1-1.7-0.4-0.9-0.4-1.9c0-29.9-19.1-40.4-19.3-40.5-1.1-0.6-2-1.7-2.3-2.9-0.4-1.3-0.3-2.6 0.3-3.8 0.7-1.1 1.7-2 2.9-2.4 1.3-0.4 2.6-0.3 3.8 0.3 1 0.5 24.6 13.5 24.6 49.3q0 1-0.4 1.9-0.4 1-1.1 1.7-0.7 0.7-1.6 1-0.9 0.4-1.9 0.4z"/><path class="b" d="m150.6 107.9q-1 0-1.9-0.4-0.9-0.3-1.6-1-0.7-0.7-1.1-1.7-0.4-0.9-0.4-1.9c0-35.8 23.6-48.8 24.6-49.3 1.2-0.6 2.5-0.7 3.8-0.3 1.2 0.4 2.3 1.2 2.9 2.4 0.6 1.1 0.7 2.5 0.4 3.7-0.4 1.3-1.3 2.4-2.4 3-0.8 0.4-19.4 10.9-19.4 40.5q0 1-0.3 1.9-0.4 1-1.1 1.7-0.7 0.7-1.6 1-0.9 0.4-1.9 0.4zm-37 33.6q-0.2 0-0.4 0-0.2-0.1-0.4-0.1-0.2 0-0.4-0.1-0.2 0-0.4-0.1c-1.7-0.5-16.8-5.6-21.1-17.3-0.4-1.2-0.4-2.6 0.2-3.8 0.5-1.1 1.6-2.1 2.8-2.5 1.2-0.5 2.6-0.4 3.8 0.1 1.2 0.6 2.1 1.6 2.6 2.8 2.2 6.1 11.6 10.3 14.7 11.3 1.2 0.3 2.1 1.1 2.7 2.1 0.7 1 0.9 2.2 0.7 3.4-0.1 1.1-0.7 2.2-1.6 3-0.9 0.7-2.1 1.2-3.2 1.2z"/><path class="a" d="m94.5 91.4c0 0 3.9-26.6-3.9-36.4 0 0-26 11.6-26 37.7 0 26.1 30.9 29.7 30.9 29.7 0 0 19.9-12.4 19.9-28.2 0-15.7-12.6-20.4-12.6-20.4z"/><path class="b" d="m95.5 127.3q-0.1 0-0.2 0 0 0-0.1 0-0.1 0-0.2 0 0 0-0.1 0c-12.2-1.4-35.3-10.5-35.3-34.6 0-29 27.8-41.7 29-42.3q0.8-0.3 1.6-0.4 0.8-0.1 1.6 0.1 0.8 0.2 1.5 0.7 0.7 0.4 1.2 1.1c3.5 4.4 5.1 11 5.7 17.7q0.4-0.3 1-0.5 0.5-0.2 1.1-0.2 0.5-0.1 1.1 0 0.6 0.1 1.1 0.3c0.6 0.2 15.9 6 15.9 25 0 18.3-21.4 31.8-22.3 32.4q-0.3 0.2-0.6 0.3-0.3 0.2-0.7 0.3-0.3 0.1-0.6 0.1-0.4 0-0.7 0zm-6.9-65.6c-6.6 4.2-19.1 14.2-19.1 31 0 18.3 18.9 23.3 24.8 24.5 5.6-4 16.2-13.3 16.2-23 0-6.8-3-10.9-5.6-13.2l-5.9 12.5c-0.5 1.1-1.4 1.9-2.5 2.4-1.1 0.5-2.3 0.6-3.4 0.2-1.2-0.3-2.1-1-2.8-2.1-0.6-1-0.9-2.2-0.7-3.3 1.2-8 1.6-21.4-1-29zm97.8 79.8c-1.1 0-2.3-0.5-3.2-1.2-0.9-0.8-1.5-1.9-1.7-3-0.1-1.2 0.1-2.4 0.7-3.4 0.6-1 1.6-1.8 2.7-2.1 3.4-1.1 12.6-5.2 14.8-11.3 0.5-1.2 1.4-2.2 2.6-2.8 1.2-0.5 2.6-0.6 3.8-0.1 1.2 0.4 2.2 1.3 2.8 2.5 0.6 1.2 0.6 2.6 0.2 3.8-4.3 11.7-19.4 16.8-21.2 17.3q-0.1 0.1-0.3 0.1-0.2 0.1-0.4 0.1-0.2 0-0.4 0.1-0.2 0-0.4 0z"/><path class="a" d="m205.5 91.4c0 0-3.9-26.6 3.9-36.4 0 0 26 11.6 26 37.7 0 26.1-30.9 29.7-30.9 29.7 0 0-19.9-12.4-19.9-28.2 0-15.7 12.6-20.4 12.6-20.4z"/><path class="b" d="m204.5 127.3q-0.3 0-0.7 0-0.3 0-0.6-0.1-0.4-0.1-0.7-0.3-0.3-0.1-0.6-0.3c-0.9-0.6-22.3-14.1-22.3-32.4 0-19 15.3-24.8 15.9-25q0.5-0.2 1.1-0.3 0.6-0.1 1.1 0 0.6 0.1 1.1 0.2 0.6 0.2 1 0.5c0.6-6.7 2.2-13.3 5.7-17.7q0.5-0.7 1.2-1.1 0.7-0.4 1.5-0.6 0.8-0.2 1.6-0.2 0.8 0.1 1.6 0.4c1.2 0.6 29 13.3 29 42.3 0 24.1-23.1 33.2-35.3 34.6q-0.1 0-0.2 0 0 0-0.1 0-0.1 0-0.1 0-0.1 0-0.2 0zm-9.4-46.3c-2.6 2.3-5.6 6.4-5.6 13.2 0 9.7 10.6 19.1 16.1 23 6-1.1 24.9-6.2 24.9-24.5 0-16.7-12.5-26.8-19.1-30.9-2.7 7.6-2.2 21-1 28.9 0.2 1.2-0.1 2.4-0.7 3.4-0.7 1-1.6 1.7-2.8 2.1-1.1 0.3-2.3 0.2-3.4-0.3-1.1-0.4-2-1.3-2.5-2.4z"/></svg>